<?xml version="1.0" encoding="UTF-8" standalone="no"?>
<!-- Created with Inkscape (http://www.inkscape.org/) -->

<svg
   xmlns:dc="http://purl.org/dc/elements/1.1/"
   xmlns:cc="http://creativecommons.org/ns#"
   xmlns:rdf="http://www.w3.org/1999/02/22-rdf-syntax-ns#"
   xmlns:svg="http://www.w3.org/2000/svg"
   xmlns="http://www.w3.org/2000/svg"
   xmlns:sodipodi="http://sodipodi.sourceforge.net/DTD/sodipodi-0.dtd"
   xmlns:inkscape="http://www.inkscape.org/namespaces/inkscape"
   version="1.1"
   id="svg2"
   xml:space="preserve"
   width="85.722557"
   height="41.575089"
   viewBox="0 0 85.722557 41.575089"
   sodipodi:docname="UIS.svg"
   inkscape:version="0.92.5 (2060ec1f9f, 2020-04-08)"><metadata
     id="metadata8"><rdf:RDF><cc:Work
         rdf:about=""><dc:format>image/svg+xml</dc:format><dc:type
           rdf:resource="http://purl.org/dc/dcmitype/StillImage" /><dc:title></dc:title></cc:Work></rdf:RDF></metadata><defs
     id="defs6" /><sodipodi:namedview
     pagecolor="#ffffff"
     bordercolor="#666666"
     borderopacity="1"
     objecttolerance="10"
     gridtolerance="10"
     guidetolerance="10"
     inkscape:pageopacity="0"
     inkscape:pageshadow="2"
     inkscape:window-width="852"
     inkscape:window-height="480"
     id="namedview4"
     showgrid="false"
     inkscape:zoom="4.6428853"
     inkscape:cx="42.861279"
     inkscape:cy="20.787544"
     inkscape:window-x="1638"
     inkscape:window-y="159"
     inkscape:window-maximized="0"
     inkscape:current-layer="g10" /><g
     id="g10"
     inkscape:groupmode="layer"
     inkscape:label="UIS"
     transform="matrix(1.3333333,0,0,-1.3333333,0,41.575088)"><g
       id="g12"
       inkscape:export-xdpi="96.099998"
       inkscape:export-ydpi="96.099998"><path
         d="M 62.211,30.908 H 35.195 c -1,0 -1.812,-0.817 -1.812,-1.813 V 2.08 c 0,-0.996 0.812,-1.813 1.812,-1.813 h 27.016 c 0.996,0 1.812,0.817 1.812,1.813 v 27.015 c 0,0.996 -0.816,1.813 -1.812,1.813"
         style="fill:#7fcc30;fill-opacity:1;fill-rule:evenodd;stroke:none"
         id="path14"
         inkscape:connector-curvature="0" /><path
         d="m 35.195,30.642 c -0.855,0 -1.547,-0.695 -1.547,-1.547 V 2.08 c 0,-0.852 0.692,-1.547 1.547,-1.547 h 27.016 c 0.852,0 1.543,0.695 1.543,1.547 v 27.015 c 0,0.852 -0.691,1.547 -1.543,1.547 z M 62.211,0.002 H 35.195 c -1.148,0 -2.082,0.933 -2.082,2.078 v 27.015 c 0,1.149 0.934,2.082 2.082,2.082 h 27.016 c 1.148,0 2.082,-0.933 2.082,-2.082 V 2.08 c 0,-1.145 -0.934,-2.078 -2.082,-2.078"
         style="fill:#7fcc30;fill-opacity:1;fill-rule:nonzero;stroke:none"
         id="path16"
         inkscape:connector-curvature="0" /><path
         d="m 36.832,23.228 h 0.484 v -1.945 c 0,-0.215 0.012,-0.371 0.032,-0.461 0.027,-0.09 0.066,-0.168 0.121,-0.231 0.097,-0.121 0.219,-0.207 0.355,-0.265 0.137,-0.059 0.293,-0.09 0.469,-0.09 0.293,0 0.527,0.078 0.707,0.23 0.18,0.149 0.27,0.352 0.27,0.602 v 2.16 h 0.48 v -2.176 c 0,-0.378 -0.133,-0.683 -0.402,-0.918 -0.27,-0.238 -0.621,-0.355 -1.055,-0.355 -0.258,0 -0.488,0.047 -0.695,0.137 -0.207,0.093 -0.383,0.226 -0.524,0.402 -0.09,0.106 -0.148,0.223 -0.187,0.352 -0.035,0.129 -0.055,0.328 -0.055,0.593 z"
         style="fill:#ffffff;fill-opacity:1;fill-rule:nonzero;stroke:none"
         id="path18"
         inkscape:connector-curvature="0" /><path
         d="m 40.383,19.841 v 2.239 h 0.445 v -0.278 c 0.11,0.11 0.223,0.188 0.332,0.239 0.113,0.047 0.231,0.07 0.356,0.07 0.242,0 0.433,-0.07 0.574,-0.211 0.14,-0.141 0.211,-0.332 0.211,-0.578 v -1.481 h -0.446 v 1.368 c 0,0.179 -0.039,0.316 -0.117,0.398 -0.078,0.09 -0.195,0.133 -0.355,0.133 -0.117,0 -0.215,-0.024 -0.305,-0.066 -0.086,-0.043 -0.168,-0.118 -0.25,-0.219 v -1.614 z"
         style="fill:#ffffff;fill-opacity:1;fill-rule:nonzero;stroke:none"
         id="path20"
         inkscape:connector-curvature="0" /><path
         d="m 42.844,22.736 c 0,0.07 0.023,0.133 0.07,0.18 0.047,0.05 0.109,0.07 0.18,0.07 0.07,0 0.129,-0.02 0.179,-0.07 0.047,-0.047 0.071,-0.11 0.071,-0.18 0,-0.07 -0.024,-0.129 -0.071,-0.18 -0.05,-0.047 -0.109,-0.07 -0.179,-0.07 -0.071,0 -0.133,0.023 -0.18,0.07 -0.047,0.051 -0.07,0.11 -0.07,0.18 m 0.027,-0.66 h 0.445 v -2.235 h -0.445 z"
         style="fill:#ffffff;fill-opacity:1;fill-rule:nonzero;stroke:none"
         id="path22"
         inkscape:connector-curvature="0" /><path
         d="m 44.629,19.795 -1.078,2.281 h 0.496 l 0.691,-1.481 0.645,1.481 h 0.484 l -1.031,-2.281 z"
         style="fill:#ffffff;fill-opacity:1;fill-rule:nonzero;stroke:none"
         id="path24"
         inkscape:connector-curvature="0" /><path
         d="m 48.07,20.08 c -0.148,-0.098 -0.3,-0.168 -0.461,-0.215 -0.156,-0.051 -0.32,-0.074 -0.488,-0.074 -0.351,0 -0.637,0.109 -0.848,0.328 -0.21,0.219 -0.316,0.512 -0.316,0.875 0,0.336 0.102,0.605 0.309,0.816 0.203,0.207 0.464,0.313 0.789,0.313 0.324,0 0.582,-0.106 0.769,-0.321 0.192,-0.211 0.285,-0.496 0.285,-0.855 V 20.881 H 46.43 c 0.015,-0.211 0.086,-0.375 0.211,-0.493 0.125,-0.121 0.297,-0.179 0.504,-0.179 0.144,0 0.293,0.027 0.445,0.078 0.156,0.054 0.316,0.133 0.48,0.238 z m -1.64,1.121 h 1.183 c -0.011,0.16 -0.07,0.293 -0.175,0.39 -0.102,0.098 -0.231,0.149 -0.387,0.149 -0.172,0 -0.309,-0.047 -0.414,-0.137 -0.106,-0.094 -0.172,-0.226 -0.207,-0.402"
         style="fill:#ffffff;fill-opacity:1;fill-rule:nonzero;stroke:none"
         id="path26"
         inkscape:connector-curvature="0" /><path
         d="m 48.531,19.841 v 2.239 h 0.442 v -0.489 c 0.125,0.196 0.238,0.333 0.34,0.411 0.097,0.078 0.207,0.113 0.32,0.113 0.082,0 0.164,-0.016 0.246,-0.051 0.086,-0.035 0.172,-0.09 0.266,-0.168 l -0.243,-0.394 c -0.07,0.062 -0.14,0.109 -0.211,0.136 -0.062,0.028 -0.132,0.043 -0.207,0.043 -0.117,0 -0.222,-0.05 -0.316,-0.152 -0.09,-0.102 -0.152,-0.246 -0.195,-0.426 v -1.262 z"
         style="fill:#ffffff;fill-opacity:1;fill-rule:nonzero;stroke:none"
         id="path28"
         inkscape:connector-curvature="0" /><path
         d="m 50.238,19.99 v 0.48 c 0.133,-0.089 0.266,-0.156 0.387,-0.203 0.125,-0.047 0.238,-0.074 0.344,-0.074 0.113,0 0.203,0.023 0.269,0.066 0.063,0.043 0.098,0.102 0.098,0.176 0,0.094 -0.121,0.203 -0.363,0.321 -0.075,0.039 -0.129,0.066 -0.168,0.089 -0.207,0.106 -0.348,0.207 -0.43,0.305 -0.074,0.102 -0.113,0.223 -0.113,0.367 0,0.188 0.066,0.336 0.199,0.446 0.133,0.109 0.316,0.164 0.555,0.164 0.125,0 0.246,-0.016 0.363,-0.043 0.113,-0.032 0.23,-0.078 0.34,-0.141 v -0.437 c -0.137,0.078 -0.266,0.132 -0.375,0.171 -0.114,0.036 -0.223,0.055 -0.324,0.055 -0.094,0 -0.168,-0.019 -0.219,-0.051 -0.051,-0.031 -0.074,-0.078 -0.074,-0.14 0,-0.114 0.156,-0.246 0.468,-0.403 l 0.039,-0.015 c 0.243,-0.125 0.403,-0.231 0.477,-0.324 0.074,-0.094 0.109,-0.211 0.109,-0.356 0,-0.195 -0.07,-0.352 -0.218,-0.469 -0.149,-0.117 -0.344,-0.175 -0.586,-0.175 -0.141,0 -0.278,0.015 -0.403,0.046 -0.125,0.032 -0.25,0.082 -0.375,0.145"
         style="fill:#ffffff;fill-opacity:1;fill-rule:nonzero;stroke:none"
         id="path30"
         inkscape:connector-curvature="0" /><path
         d="m 52.234,22.736 c 0,0.07 0.024,0.133 0.071,0.18 0.05,0.05 0.109,0.07 0.183,0.07 0.067,0 0.129,-0.02 0.176,-0.07 0.051,-0.047 0.074,-0.11 0.074,-0.18 0,-0.07 -0.023,-0.129 -0.074,-0.18 -0.047,-0.047 -0.109,-0.07 -0.176,-0.07 -0.074,0 -0.133,0.023 -0.183,0.07 -0.047,0.051 -0.071,0.11 -0.071,0.18 m 0.032,-0.66 h 0.441 v -2.235 h -0.441 z"
         style="fill:#ffffff;fill-opacity:1;fill-rule:nonzero;stroke:none"
         id="path32"
         inkscape:connector-curvature="0" /><path
         d="m 54.84,20.338 v 1.257 c -0.074,0.051 -0.149,0.09 -0.223,0.118 -0.078,0.023 -0.156,0.035 -0.246,0.035 -0.226,0 -0.406,-0.067 -0.535,-0.207 -0.133,-0.141 -0.199,-0.328 -0.199,-0.575 0,-0.246 0.066,-0.437 0.199,-0.574 0.129,-0.14 0.309,-0.211 0.535,-0.211 0.09,0 0.168,0.012 0.246,0.039 0.074,0.024 0.149,0.063 0.223,0.118 m 0,-0.375 c -0.082,-0.055 -0.172,-0.098 -0.266,-0.125 -0.097,-0.028 -0.199,-0.043 -0.316,-0.043 -0.324,0 -0.586,0.109 -0.789,0.328 -0.207,0.215 -0.309,0.492 -0.309,0.84 0,0.343 0.102,0.621 0.309,0.839 0.203,0.215 0.465,0.325 0.789,0.325 0.113,0 0.215,-0.016 0.312,-0.043 0.098,-0.028 0.184,-0.071 0.27,-0.133 v 1.277 h 0.445 V 19.841 H 54.84 Z"
         style="fill:#ffffff;fill-opacity:1;fill-rule:nonzero;stroke:none"
         id="path34"
         inkscape:connector-curvature="0" /><path
         d="m 56.961,20.295 v 0.656 c -0.301,-0.094 -0.508,-0.18 -0.621,-0.258 -0.113,-0.082 -0.172,-0.172 -0.172,-0.277 0,-0.09 0.031,-0.164 0.09,-0.211 0.058,-0.051 0.14,-0.074 0.246,-0.074 0.082,0 0.16,0.011 0.234,0.039 0.075,0.031 0.149,0.07 0.223,0.125 m 0.016,-0.27 c -0.114,-0.082 -0.219,-0.137 -0.321,-0.172 -0.101,-0.035 -0.211,-0.051 -0.328,-0.051 -0.199,0 -0.355,0.047 -0.469,0.141 -0.109,0.098 -0.168,0.231 -0.168,0.398 0,0.157 0.063,0.297 0.184,0.415 0.125,0.121 0.309,0.222 0.555,0.304 l 0.531,0.176 c 0,0.016 0,0.027 0.004,0.039 0,0.016 0,0.031 0,0.055 0,0.136 -0.035,0.234 -0.098,0.293 -0.066,0.058 -0.172,0.086 -0.324,0.086 -0.125,0 -0.25,-0.024 -0.387,-0.078 -0.129,-0.051 -0.265,-0.129 -0.394,-0.235 v 0.442 c 0.113,0.093 0.242,0.164 0.386,0.214 0.141,0.047 0.29,0.071 0.454,0.071 0.285,0 0.492,-0.067 0.625,-0.192 0.128,-0.125 0.195,-0.332 0.195,-0.613 v -0.945 c 0,-0.082 0.008,-0.137 0.023,-0.172 0.012,-0.031 0.035,-0.047 0.067,-0.047 0.027,0 0.054,0.008 0.09,0.02 0.027,0.015 0.074,0.05 0.144,0.105 v -0.273 c -0.082,-0.071 -0.164,-0.122 -0.246,-0.157 -0.082,-0.031 -0.168,-0.047 -0.258,-0.047 -0.086,0 -0.148,0.02 -0.191,0.055 -0.043,0.031 -0.071,0.09 -0.074,0.168"
         style="fill:#ffffff;fill-opacity:1;fill-rule:nonzero;stroke:none"
         id="path36"
         inkscape:connector-curvature="0" /><path
         d="m 59.551,20.338 v 1.257 c -0.071,0.051 -0.145,0.09 -0.223,0.118 -0.074,0.023 -0.156,0.035 -0.242,0.035 -0.231,0 -0.41,-0.067 -0.539,-0.207 -0.129,-0.141 -0.195,-0.328 -0.195,-0.575 0,-0.246 0.066,-0.437 0.195,-0.574 0.129,-0.14 0.308,-0.211 0.539,-0.211 0.086,0 0.168,0.012 0.242,0.039 0.078,0.024 0.152,0.063 0.223,0.118 m 0,-0.375 c -0.082,-0.055 -0.168,-0.098 -0.266,-0.125 -0.094,-0.028 -0.199,-0.043 -0.312,-0.043 -0.325,0 -0.586,0.109 -0.793,0.328 -0.203,0.215 -0.305,0.492 -0.305,0.84 0,0.343 0.102,0.621 0.305,0.839 0.207,0.215 0.468,0.325 0.793,0.325 0.109,0 0.215,-0.016 0.312,-0.043 0.094,-0.028 0.184,-0.071 0.266,-0.133 v 1.277 H 60 v -3.387 h -0.449 z"
         style="fill:#ffffff;fill-opacity:1;fill-rule:nonzero;stroke:none"
         id="path38"
         inkscape:connector-curvature="0" /><path
         d="m 36.871,17.314 h 0.48 v -3.391 h -0.48 z"
         style="fill:#ffffff;fill-opacity:1;fill-rule:nonzero;stroke:none"
         id="path40"
         inkscape:connector-curvature="0" /><path
         d="m 38.016,13.924 v 2.238 h 0.445 v -0.274 c 0.113,0.106 0.223,0.184 0.332,0.235 0.113,0.047 0.23,0.07 0.359,0.07 0.243,0 0.434,-0.066 0.575,-0.211 0.136,-0.137 0.207,-0.332 0.207,-0.574 v -1.484 h -0.446 v 1.367 c 0,0.179 -0.039,0.316 -0.117,0.402 -0.074,0.086 -0.195,0.129 -0.355,0.129 -0.114,0 -0.215,-0.02 -0.301,-0.066 -0.086,-0.043 -0.172,-0.118 -0.254,-0.219 v -1.613 z"
         style="fill:#ffffff;fill-opacity:1;fill-rule:nonzero;stroke:none"
         id="path42"
         inkscape:connector-curvature="0" /><path
         d="m 42.031,14.42 v 1.257 c -0.07,0.055 -0.144,0.094 -0.222,0.118 -0.075,0.027 -0.157,0.039 -0.243,0.039 -0.226,0 -0.406,-0.071 -0.539,-0.211 -0.129,-0.137 -0.195,-0.328 -0.195,-0.574 0,-0.243 0.066,-0.434 0.195,-0.575 0.133,-0.14 0.313,-0.207 0.539,-0.207 0.086,0 0.168,0.008 0.243,0.035 0.078,0.024 0.152,0.067 0.222,0.118 m 0,-0.371 c -0.082,-0.059 -0.172,-0.098 -0.265,-0.129 -0.094,-0.024 -0.2,-0.039 -0.313,-0.039 -0.324,0 -0.586,0.109 -0.789,0.324 -0.207,0.215 -0.309,0.496 -0.309,0.84 0,0.343 0.102,0.625 0.309,0.839 0.203,0.219 0.465,0.325 0.789,0.325 0.113,0 0.215,-0.012 0.313,-0.039 0.093,-0.032 0.183,-0.075 0.265,-0.133 v 1.277 h 0.449 v -3.39 h -0.449 z"
         style="fill:#ffffff;fill-opacity:1;fill-rule:nonzero;stroke:none"
         id="path44"
         inkscape:connector-curvature="0" /><path
         d="m 44.52,14.197 c -0.114,-0.106 -0.223,-0.184 -0.332,-0.234 -0.114,-0.051 -0.231,-0.075 -0.36,-0.075 -0.242,0 -0.433,0.075 -0.574,0.211 -0.145,0.141 -0.211,0.332 -0.211,0.578 v 1.485 h 0.449 v -1.371 c 0,-0.18 0.035,-0.313 0.113,-0.403 0.079,-0.086 0.2,-0.129 0.36,-0.129 0.113,0 0.215,0.024 0.301,0.067 0.086,0.047 0.172,0.121 0.254,0.223 v 1.613 h 0.445 V 13.924 H 44.52 Z"
         style="fill:#ffffff;fill-opacity:1;fill-rule:nonzero;stroke:none"
         id="path46"
         inkscape:connector-curvature="0" /><path
         d="m 45.387,14.076 v 0.476 c 0.133,-0.086 0.261,-0.156 0.386,-0.203 0.125,-0.047 0.239,-0.07 0.34,-0.07 0.114,0 0.207,0.023 0.27,0.066 0.066,0.039 0.097,0.098 0.097,0.176 0,0.09 -0.121,0.199 -0.363,0.32 -0.07,0.036 -0.125,0.063 -0.164,0.086 -0.207,0.106 -0.351,0.207 -0.43,0.309 -0.078,0.098 -0.117,0.219 -0.117,0.363 0,0.188 0.067,0.336 0.199,0.446 0.137,0.109 0.321,0.164 0.555,0.164 0.125,0 0.246,-0.016 0.363,-0.043 0.118,-0.028 0.231,-0.078 0.34,-0.137 v -0.438 c -0.136,0.075 -0.261,0.133 -0.375,0.168 -0.113,0.036 -0.222,0.055 -0.324,0.055 -0.094,0 -0.164,-0.019 -0.215,-0.051 -0.051,-0.031 -0.078,-0.078 -0.078,-0.14 0,-0.11 0.156,-0.246 0.469,-0.399 l 0.039,-0.019 c 0.246,-0.121 0.406,-0.231 0.48,-0.324 0.075,-0.09 0.11,-0.211 0.11,-0.352 0,-0.199 -0.074,-0.355 -0.223,-0.473 -0.144,-0.117 -0.344,-0.175 -0.586,-0.175 -0.14,0 -0.273,0.015 -0.402,0.046 -0.125,0.036 -0.25,0.082 -0.371,0.149"
         style="fill:#ffffff;fill-opacity:1;fill-rule:nonzero;stroke:none"
         id="path48"
         inkscape:connector-curvature="0" /><path
         d="m 48.633,13.994 c -0.07,-0.039 -0.145,-0.067 -0.227,-0.086 -0.078,-0.02 -0.164,-0.027 -0.258,-0.027 -0.25,0 -0.429,0.058 -0.531,0.179 -0.101,0.117 -0.156,0.336 -0.156,0.653 v 1.062 h -0.379 v 0.043 l 0.785,0.863 h 0.051 v -0.519 h 0.699 v -0.387 h -0.699 v -1.027 c 0,-0.184 0.02,-0.305 0.066,-0.36 0.047,-0.054 0.133,-0.082 0.258,-0.082 0.071,0 0.137,0.012 0.203,0.028 0.063,0.015 0.125,0.043 0.188,0.082 z"
         style="fill:#ffffff;fill-opacity:1;fill-rule:nonzero;stroke:none"
         id="path50"
         inkscape:connector-curvature="0" /><path
         d="m 48.996,13.924 v 2.238 h 0.445 v -0.488 c 0.125,0.199 0.239,0.332 0.336,0.41 0.102,0.078 0.207,0.117 0.325,0.117 0.082,0 0.16,-0.016 0.246,-0.055 0.082,-0.035 0.172,-0.09 0.265,-0.164 l -0.242,-0.398 c -0.074,0.066 -0.144,0.109 -0.211,0.14 -0.062,0.028 -0.133,0.039 -0.207,0.039 -0.121,0 -0.226,-0.05 -0.316,-0.152 -0.09,-0.102 -0.153,-0.242 -0.196,-0.422 v -1.265 z"
         style="fill:#ffffff;fill-opacity:1;fill-rule:nonzero;stroke:none"
         id="path52"
         inkscape:connector-curvature="0" /><path
         d="m 50.836,16.818 c 0,0.074 0.027,0.133 0.074,0.18 0.047,0.051 0.11,0.074 0.18,0.074 0.07,0 0.129,-0.023 0.18,-0.074 0.046,-0.047 0.07,-0.106 0.07,-0.18 0,-0.066 -0.024,-0.129 -0.07,-0.176 -0.051,-0.051 -0.11,-0.074 -0.18,-0.074 -0.07,0 -0.133,0.023 -0.18,0.074 -0.047,0.047 -0.074,0.11 -0.074,0.176 m 0.031,-0.656 h 0.446 v -2.238 h -0.446 z"
         style="fill:#ffffff;fill-opacity:1;fill-rule:nonzero;stroke:none"
         id="path54"
         inkscape:connector-curvature="0" /><path
         d="m 53,14.377 v 0.66 c -0.305,-0.094 -0.508,-0.184 -0.621,-0.262 -0.117,-0.078 -0.172,-0.172 -0.172,-0.273 0,-0.094 0.027,-0.164 0.086,-0.215 0.059,-0.051 0.145,-0.074 0.25,-0.074 0.078,0 0.156,0.011 0.23,0.043 0.079,0.027 0.153,0.07 0.227,0.121 m 0.016,-0.266 c -0.114,-0.082 -0.219,-0.141 -0.321,-0.176 -0.105,-0.031 -0.211,-0.051 -0.328,-0.051 -0.199,0 -0.355,0.047 -0.469,0.145 -0.113,0.094 -0.168,0.227 -0.168,0.398 0,0.157 0.059,0.293 0.184,0.414 0.121,0.118 0.309,0.219 0.555,0.305 L 53,15.322 c 0,0.012 0,0.023 0.004,0.039 0,0.012 0,0.031 0,0.055 0,0.133 -0.031,0.23 -0.098,0.289 -0.066,0.058 -0.176,0.09 -0.324,0.09 -0.121,0 -0.254,-0.028 -0.383,-0.079 -0.133,-0.054 -0.265,-0.132 -0.398,-0.234 v 0.442 c 0.113,0.093 0.242,0.164 0.387,0.21 0.14,0.047 0.289,0.071 0.449,0.071 0.289,0 0.5,-0.063 0.629,-0.188 0.132,-0.129 0.195,-0.336 0.195,-0.617 v -0.945 c 0,-0.078 0.008,-0.137 0.023,-0.168 0.012,-0.035 0.036,-0.051 0.071,-0.051 0.023,0 0.05,0.008 0.082,0.023 0.031,0.012 0.078,0.047 0.148,0.102 v -0.273 c -0.082,-0.071 -0.164,-0.122 -0.246,-0.153 -0.082,-0.031 -0.168,-0.051 -0.258,-0.051 -0.086,0 -0.148,0.02 -0.191,0.055 -0.043,0.035 -0.067,0.09 -0.074,0.172"
         style="fill:#ffffff;fill-opacity:1;fill-rule:nonzero;stroke:none"
         id="path56"
         inkscape:connector-curvature="0" /><path
         d="m 54.063,17.314 h 0.445 v -3.391 h -0.445 z"
         style="fill:#ffffff;fill-opacity:1;fill-rule:nonzero;stroke:none"
         id="path58"
         inkscape:connector-curvature="0" /><path
         d="m 57.887,14.42 v 1.257 c -0.071,0.055 -0.149,0.094 -0.223,0.118 -0.078,0.027 -0.156,0.039 -0.246,0.039 -0.227,0 -0.406,-0.071 -0.535,-0.211 -0.133,-0.137 -0.195,-0.328 -0.195,-0.574 0,-0.243 0.062,-0.434 0.195,-0.575 0.129,-0.14 0.308,-0.207 0.535,-0.207 0.09,0 0.168,0.008 0.246,0.035 0.074,0.024 0.152,0.067 0.223,0.118 m 0,-0.371 c -0.082,-0.059 -0.172,-0.098 -0.266,-0.129 -0.094,-0.024 -0.199,-0.039 -0.316,-0.039 -0.325,0 -0.586,0.109 -0.789,0.324 -0.203,0.215 -0.309,0.496 -0.309,0.84 0,0.343 0.106,0.625 0.309,0.839 0.203,0.219 0.464,0.325 0.789,0.325 0.113,0 0.218,-0.012 0.312,-0.039 0.098,-0.032 0.184,-0.075 0.27,-0.133 v 1.277 h 0.445 v -3.39 h -0.445 z"
         style="fill:#ffffff;fill-opacity:1;fill-rule:nonzero;stroke:none"
         id="path60"
         inkscape:connector-curvature="0" /><path
         d="m 60.875,14.162 c -0.152,-0.098 -0.305,-0.168 -0.461,-0.215 -0.156,-0.047 -0.32,-0.074 -0.488,-0.074 -0.352,0 -0.637,0.113 -0.848,0.332 -0.207,0.219 -0.312,0.508 -0.312,0.875 0,0.332 0.101,0.605 0.3,0.812 0.204,0.207 0.469,0.313 0.793,0.313 0.325,0 0.582,-0.106 0.77,-0.317 0.187,-0.211 0.281,-0.496 0.281,-0.855 v -0.067 h -1.676 c 0.016,-0.214 0.082,-0.378 0.207,-0.496 0.129,-0.117 0.297,-0.179 0.508,-0.179 0.145,0 0.293,0.027 0.446,0.082 0.152,0.051 0.312,0.129 0.48,0.238 z m -1.641,1.121 h 1.188 c -0.016,0.164 -0.074,0.293 -0.18,0.391 -0.101,0.101 -0.23,0.148 -0.387,0.148 -0.171,0 -0.308,-0.043 -0.414,-0.137 -0.105,-0.09 -0.171,-0.222 -0.207,-0.402"
         style="fill:#ffffff;fill-opacity:1;fill-rule:nonzero;stroke:none"
         id="path62"
         inkscape:connector-curvature="0" /><path
         d="m 36.68,8.271 v 0.641 c 0.152,-0.176 0.3,-0.305 0.441,-0.383 0.141,-0.074 0.289,-0.117 0.445,-0.117 0.168,0 0.301,0.043 0.399,0.121 0.098,0.078 0.144,0.183 0.144,0.316 0,0.11 -0.035,0.207 -0.097,0.289 -0.067,0.086 -0.219,0.207 -0.469,0.364 -0.383,0.246 -0.621,0.437 -0.719,0.57 -0.101,0.137 -0.148,0.301 -0.148,0.484 0,0.266 0.094,0.481 0.281,0.649 0.184,0.168 0.426,0.254 0.719,0.254 0.133,0 0.258,-0.02 0.387,-0.059 0.125,-0.035 0.253,-0.094 0.382,-0.176 v -0.547 c -0.148,0.122 -0.285,0.207 -0.41,0.258 -0.125,0.055 -0.25,0.082 -0.379,0.082 -0.152,0 -0.273,-0.035 -0.371,-0.113 -0.094,-0.074 -0.144,-0.172 -0.144,-0.289 0,-0.168 0.203,-0.375 0.597,-0.625 l 0.075,-0.043 c 0.324,-0.199 0.535,-0.379 0.636,-0.535 0.098,-0.153 0.149,-0.344 0.149,-0.571 0,-0.257 -0.09,-0.472 -0.278,-0.64 -0.191,-0.168 -0.429,-0.254 -0.718,-0.254 -0.184,0 -0.352,0.027 -0.497,0.078 -0.148,0.051 -0.289,0.133 -0.425,0.246"
         style="fill:#ffffff;fill-opacity:1;fill-rule:nonzero;stroke:none"
         id="path64"
         inkscape:connector-curvature="0" /><path
         d="M 40.16,8.463 V 9.119 C 39.863,9.025 39.656,8.939 39.539,8.861 39.426,8.779 39.367,8.689 39.367,8.584 c 0,-0.09 0.031,-0.164 0.09,-0.211 0.063,-0.055 0.141,-0.078 0.25,-0.078 0.078,0 0.156,0.015 0.231,0.043 0.078,0.027 0.152,0.07 0.222,0.125 m 0.02,-0.27 C 40.066,8.111 39.957,8.056 39.859,8.021 39.758,7.986 39.648,7.97 39.531,7.97 c -0.199,0 -0.355,0.047 -0.468,0.141 -0.114,0.098 -0.168,0.23 -0.168,0.398 0,0.157 0.058,0.297 0.183,0.418 0.121,0.118 0.309,0.215 0.551,0.301 l 0.531,0.176 c 0,0.012 0,0.027 0.008,0.039 0,0.012 0,0.031 0,0.055 0,0.136 -0.035,0.23 -0.098,0.289 -0.066,0.062 -0.175,0.09 -0.324,0.09 -0.125,0 -0.254,-0.028 -0.387,-0.078 C 39.227,9.748 39.094,9.666 38.965,9.564 v 0.442 c 0.113,0.093 0.242,0.164 0.383,0.214 0.14,0.043 0.293,0.067 0.453,0.067 0.285,0 0.496,-0.063 0.629,-0.188 0.129,-0.129 0.195,-0.332 0.195,-0.613 V 8.537 c 0,-0.078 0.008,-0.133 0.02,-0.168 0.011,-0.031 0.035,-0.051 0.07,-0.051 0.027,0 0.055,0.008 0.086,0.023 0.031,0.016 0.078,0.051 0.144,0.102 V 8.174 C 40.863,8.103 40.785,8.049 40.699,8.017 40.617,7.986 40.535,7.97 40.445,7.97 c -0.086,0 -0.152,0.016 -0.195,0.051 -0.039,0.035 -0.066,0.094 -0.074,0.172"
         style="fill:#ffffff;fill-opacity:1;fill-rule:nonzero;stroke:none"
         id="path66"
         inkscape:connector-curvature="0" /><path
         d="m 41.211,8.006 v 2.238 h 0.445 V 9.97 c 0.11,0.106 0.223,0.184 0.332,0.235 0.114,0.051 0.231,0.074 0.36,0.074 0.238,0 0.433,-0.07 0.57,-0.211 0.141,-0.141 0.211,-0.332 0.211,-0.578 V 8.006 h -0.445 v 1.371 c 0,0.179 -0.039,0.312 -0.118,0.398 -0.074,0.09 -0.195,0.133 -0.355,0.133 -0.113,0 -0.215,-0.024 -0.301,-0.07 C 41.824,9.795 41.738,9.72 41.656,9.619 V 8.006 Z"
         style="fill:#ffffff;fill-opacity:1;fill-rule:nonzero;stroke:none"
         id="path68"
         inkscape:connector-curvature="0" /><path
         d="M 44.922,8.076 C 44.852,8.041 44.777,8.009 44.695,7.994 44.617,7.974 44.531,7.963 44.441,7.963 c -0.253,0 -0.433,0.062 -0.535,0.179 -0.101,0.117 -0.152,0.336 -0.152,0.653 V 9.857 H 43.371 V 9.9 l 0.785,0.867 h 0.051 v -0.523 h 0.699 V 9.857 H 44.207 V 8.83 c 0,-0.184 0.023,-0.305 0.07,-0.36 0.047,-0.054 0.129,-0.082 0.258,-0.082 0.067,0 0.133,0.012 0.195,0.028 0.067,0.019 0.129,0.047 0.192,0.082 z"
         style="fill:#ffffff;fill-opacity:1;fill-rule:nonzero;stroke:none"
         id="path70"
         inkscape:connector-curvature="0" /><path
         d="M 46.383,8.463 V 9.119 C 46.082,9.025 45.875,8.939 45.762,8.861 45.648,8.779 45.59,8.689 45.59,8.584 c 0,-0.09 0.031,-0.164 0.09,-0.211 0.058,-0.055 0.14,-0.078 0.246,-0.078 0.082,0 0.156,0.015 0.234,0.043 0.074,0.027 0.149,0.07 0.223,0.125 m 0.015,-0.27 C 46.285,8.111 46.18,8.056 46.078,8.021 45.977,7.986 45.867,7.97 45.75,7.97 c -0.199,0 -0.355,0.047 -0.469,0.141 -0.113,0.098 -0.168,0.23 -0.168,0.398 0,0.157 0.063,0.297 0.184,0.418 0.121,0.118 0.308,0.215 0.555,0.301 l 0.531,0.176 c 0,0.012 0,0.027 0,0.039 0,0.012 0,0.031 0,0.055 0,0.136 -0.031,0.23 -0.098,0.289 -0.066,0.062 -0.176,0.09 -0.324,0.09 -0.125,0 -0.254,-0.028 -0.383,-0.078 C 45.445,9.748 45.313,9.666 45.18,9.564 v 0.442 c 0.113,0.093 0.242,0.164 0.386,0.214 0.141,0.043 0.289,0.067 0.45,0.067 0.289,0 0.5,-0.063 0.629,-0.188 C 46.777,9.97 46.84,9.767 46.84,9.486 V 8.537 c 0,-0.078 0.008,-0.133 0.023,-0.168 0.012,-0.031 0.035,-0.051 0.071,-0.051 0.023,0 0.054,0.008 0.082,0.023 0.031,0.016 0.078,0.051 0.148,0.102 V 8.174 C 47.082,8.103 47,8.049 46.918,8.017 46.836,7.986 46.75,7.97 46.66,7.97 c -0.082,0 -0.148,0.016 -0.191,0.051 -0.043,0.035 -0.067,0.094 -0.074,0.172"
         style="fill:#ffffff;fill-opacity:1;fill-rule:nonzero;stroke:none"
         id="path72"
         inkscape:connector-curvature="0" /><path
         d="m 47.43,8.006 v 2.238 h 0.445 V 9.97 c 0.113,0.106 0.223,0.184 0.332,0.235 0.113,0.051 0.234,0.074 0.359,0.074 0.243,0 0.434,-0.07 0.571,-0.211 0.14,-0.141 0.211,-0.332 0.211,-0.578 V 8.006 h -0.446 v 1.371 c 0,0.179 -0.039,0.312 -0.113,0.398 -0.078,0.09 -0.195,0.133 -0.359,0.133 -0.114,0 -0.215,-0.024 -0.301,-0.07 C 48.043,9.795 47.957,9.72 47.875,9.619 V 8.006 Z"
         style="fill:#ffffff;fill-opacity:1;fill-rule:nonzero;stroke:none"
         id="path74"
         inkscape:connector-curvature="0" /><path
         d="m 51.449,8.506 v 1.257 c -0.074,0.051 -0.148,0.09 -0.222,0.118 -0.079,0.023 -0.161,0.035 -0.247,0.035 -0.226,0 -0.406,-0.071 -0.539,-0.207 -0.128,-0.141 -0.195,-0.332 -0.195,-0.575 0,-0.246 0.067,-0.437 0.195,-0.574 0.133,-0.144 0.313,-0.211 0.539,-0.211 0.086,0 0.168,0.012 0.247,0.035 0.074,0.028 0.148,0.067 0.222,0.122 m 0,-0.375 C 51.363,8.076 51.277,8.033 51.184,8.006 51.09,7.978 50.984,7.963 50.867,7.963 c -0.324,0 -0.586,0.109 -0.793,0.328 -0.203,0.215 -0.304,0.492 -0.304,0.84 0,0.343 0.101,0.625 0.304,0.835 0.207,0.219 0.469,0.329 0.793,0.329 0.113,0 0.219,-0.016 0.313,-0.043 0.093,-0.028 0.183,-0.075 0.269,-0.133 v 1.277 h 0.446 v -3.39 h -0.446 z"
         style="fill:#ffffff;fill-opacity:1;fill-rule:nonzero;stroke:none"
         id="path76"
         inkscape:connector-curvature="0" /><path
         d="M 54.434,8.244 C 54.285,8.15 54.133,8.076 53.977,8.029 53.82,7.982 53.656,7.959 53.488,7.959 c -0.355,0 -0.636,0.109 -0.847,0.328 -0.211,0.219 -0.317,0.512 -0.317,0.875 0,0.336 0.102,0.605 0.305,0.812 0.203,0.211 0.469,0.313 0.793,0.313 0.324,0 0.578,-0.106 0.769,-0.317 0.188,-0.211 0.282,-0.496 0.282,-0.855 V 9.049 h -1.676 c 0.012,-0.211 0.082,-0.379 0.211,-0.497 0.125,-0.117 0.293,-0.175 0.504,-0.175 0.14,0 0.289,0.023 0.445,0.078 0.152,0.051 0.313,0.129 0.477,0.238 z m -1.637,1.121 h 1.187 c -0.015,0.164 -0.078,0.293 -0.179,0.394 -0.102,0.098 -0.231,0.149 -0.387,0.149 -0.172,0 -0.309,-0.047 -0.414,-0.141 -0.106,-0.09 -0.176,-0.222 -0.207,-0.402"
         style="fill:#ffffff;fill-opacity:1;fill-rule:nonzero;stroke:none"
         id="path78"
         inkscape:connector-curvature="0" /><path
         d="m 54.895,8.006 v 2.238 h 0.449 V 9.759 c 0.121,0.196 0.234,0.332 0.332,0.411 0.101,0.074 0.207,0.113 0.324,0.113 0.082,0 0.164,-0.016 0.246,-0.051 0.082,-0.035 0.172,-0.094 0.266,-0.164 L 56.27,9.67 C 56.195,9.732 56.125,9.775 56.063,9.806 55.996,9.834 55.926,9.849 55.852,9.849 55.73,9.849 55.625,9.799 55.535,9.697 55.445,9.595 55.379,9.451 55.344,9.271 V 8.006 Z"
         style="fill:#ffffff;fill-opacity:1;fill-rule:nonzero;stroke:none"
         id="path80"
         inkscape:connector-curvature="0" /><path
         d="m 2.078,30.916 h 27.016 c 0.996,0 1.812,-0.817 1.812,-1.813 V 2.088 c 0,-0.997 -0.816,-1.817 -1.812,-1.817 H 2.078 c -0.996,0 -1.812,0.82 -1.812,1.817 v 27.015 c 0,0.996 0.816,1.813 1.812,1.813"
         style="fill:#ffffff;fill-opacity:1;fill-rule:evenodd;stroke:none"
         id="path82"
         inkscape:connector-curvature="0" /><path
         d="m 2.078,30.646 c -0.851,0 -1.543,-0.691 -1.543,-1.543 V 2.088 c 0,-0.852 0.692,-1.547 1.543,-1.547 h 27.016 c 0.851,0 1.547,0.695 1.547,1.547 v 27.015 c 0,0.852 -0.696,1.543 -1.547,1.543 z M 29.094,0.006 H 2.078 C 0.934,0.006 0,0.939 0,2.088 v 27.015 c 0,1.145 0.934,2.078 2.078,2.078 h 27.016 c 1.148,0 2.082,-0.933 2.082,-2.078 V 2.088 c 0,-1.149 -0.934,-2.082 -2.082,-2.082"
         style="fill:#7fcc30;fill-opacity:1;fill-rule:nonzero;stroke:none"
         id="path84"
         inkscape:connector-curvature="0" /><path
         d="M 17.453,13.685 V 5.041 c 0.77,0.14 1.527,0.363 2.246,0.668 0.211,0.09 0.422,0.183 0.625,0.285 1.031,0.515 1.981,1.195 2.809,2.027 v 8.785 h -3.274 v 0.703 h 0.004 v 5.344 c 0.242,-0.144 0.481,-0.297 0.703,-0.465 v -4.879 h 2.567 v 5.657 c -0.262,0.265 -0.539,0.511 -0.824,0.746 -0.309,0.254 -0.629,0.484 -0.965,0.699 -1.184,0.762 -2.508,1.281 -3.891,1.535 V 14.384 h 3.11 V 8.799 C 20.336,8.634 20.102,8.478 19.859,8.33 v 5.355 z"
         style="fill:#7fcc30;fill-opacity:1;fill-rule:nonzero;stroke:none"
         id="path86"
         inkscape:connector-curvature="0" /><path
         d="m 14.324,4.947 c 0.41,-0.051 0.821,-0.074 1.235,-0.074 h 0.004 c 0.398,0 0.792,0.023 1.183,0.066 v 21.309 c -0.394,0.043 -0.785,0.066 -1.183,0.066 -0.415,0 -0.829,-0.023 -1.239,-0.074 z"
         style="fill:#7fcc30;fill-opacity:1;fill-rule:nonzero;stroke:none"
         id="path88"
         inkscape:connector-curvature="0" /><path
         d="M 10.547,25.045 C 9.637,24.549 8.793,23.92 8.043,23.166 V 8.021 C 8.305,7.756 8.582,7.506 8.867,7.275 9.172,7.021 9.492,6.791 9.82,6.576 10.98,5.822 12.266,5.306 13.621,5.052 v 21.082 c -0.75,-0.14 -1.476,-0.359 -2.168,-0.656 -0.066,-0.027 -0.133,-0.054 -0.199,-0.086 V 8.373 c -0.25,0.152 -0.484,0.312 -0.707,0.472 z"
         style="fill:#7fcc30;fill-opacity:1;fill-rule:nonzero;stroke:none"
         id="path90"
         inkscape:connector-curvature="0" /></g></g></svg>